HIERARCHY
ROOT Hips
{
	OFFSET 0.00000 0.00000 0.00000
	CHANNELS 6 Xposition Yposition Zposition Zrotation Yrotation Xrotation 
	JOINT LHipJoint
	{
		OFFSET 0 0 0
		CHANNELS 3 Zrotation Yrotation Xrotation
		JOINT LeftUpLeg
		{
			OFFSET 2.36090 -1.39315 1.24752
			CHANNELS 3 Zrotation Yrotation Xrotation
			JOINT LeftLeg
			{
				OFFSET 2.06810 -5.68207 0.00000
				CHANNELS 3 Zrotation Yrotation Xrotation
				JOINT LeftFoot
				{
					OFFSET 2.46631 -6.77613 0.00000
					CHANNELS 3 Zrotation Yrotation Xrotation
					JOINT LeftToeBase
					{
						OFFSET 0.26031 -0.71520 1.99545
						CHANNELS 3 Zrotation Yrotation Xrotation
						End Site
						{
							OFFSET 0.00000 -0.00000 1.05957
						}
					}
				}
			}
		}
	}
	JOINT RHipJoint
	{
		OFFSET 0 0 0
		CHANNELS 3 Zrotation Yrotation Xrotation
		JOINT RightUpLeg
		{
			OFFSET -2.25243 -1.39315 1.24752
			CHANNELS 3 Zrotation Yrotation Xrotation
			JOINT RightLeg
			{
				OFFSET -2.17343 -5.97145 0.00000
				CHANNELS 3 Zrotation Yrotation Xrotation
				JOINT RightFoot
				{
					OFFSET -2.52372 -6.93386 0.00000
					CHANNELS 3 Zrotation Yrotation Xrotation
					JOINT RightToeBase
					{
						OFFSET -0.22538 -0.61923 2.11447
						CHANNELS 3 Zrotation Yrotation Xrotation
						End Site
						{
							OFFSET -0.00000 -0.00000 1.10506
						}
					}
				}
			}
		}
	}
	JOINT LowerBack
	{
		OFFSET 0 0 0
		CHANNELS 3 Zrotation Yrotation Xrotation
		JOINT Spine
		{
			OFFSET 0.01594 2.13103 0.08007
			CHANNELS 3 Zrotation Yrotation Xrotation
			JOINT Spine1
			{
				OFFSET 0.01393 2.09723 0.18338
				CHANNELS 3 Zrotation Yrotation Xrotation
				JOINT Neck
				{
					OFFSET 0 0 0
					CHANNELS 3 Zrotation Yrotation Xrotation
					JOINT Neck1
					{
						OFFSET 0.05351 1.38915 0.32494
						CHANNELS 3 Zrotation Yrotation Xrotation
						JOINT Head
						{
							OFFSET 0.00711 1.45992 -0.21666
							CHANNELS 3 Zrotation Yrotation Xrotation
							End Site
							{
								OFFSET -0.00433 1.47702 -0.11056
							}
						}
					}
				}
				JOINT LeftShoulder
				{
					OFFSET 0 0 0
					CHANNELS 3 Zrotation Yrotation Xrotation
					JOINT LeftArm
					{
						OFFSET 2.87198 0.92249 0.11132
						CHANNELS 3 Zrotation Yrotation Xrotation
						JOINT LeftForeArm
						{
							OFFSET 5.52731 -0.00000 0.00000
							CHANNELS 3 Zrotation Yrotation Xrotation
							JOINT LeftHand
							{
								OFFSET 3.11059 -0.00000 0.00000
								CHANNELS 3 Zrotation Yrotation Xrotation
								JOINT LeftFingerBase
								{
									OFFSET 0 0 0
									CHANNELS 3 Zrotation Yrotation Xrotation
									JOINT LeftHandIndex1
									{
										OFFSET 0.41963 -0.00000 0.00000
										CHANNELS 3 Zrotation Yrotation Xrotation
										End Site
										{
											OFFSET 0.33831 -0.00000 0.00000
										}
									}
								}
								JOINT LThumb
								{
									OFFSET 0 0 0
									CHANNELS 3 Zrotation Yrotation Xrotation
									End Site
									{
										OFFSET 0.34348 -0.00000 0.34348
									}
								}
							}
						}
					}
				}
				JOINT RightShoulder
				{
					OFFSET 0 0 0
					CHANNELS 3 Zrotation Yrotation Xrotation
					JOINT RightArm
					{
						OFFSET -2.94710 0.68072 0.32187
						CHANNELS 3 Zrotation Yrotation Xrotation
						JOINT RightForeArm
						{
							OFFSET -5.25396 -0.00000 -0.00000
							CHANNELS 3 Zrotation Yrotation Xrotation
							JOINT RightHand
							{
								OFFSET -3.10567 -0.00000 0.00000
								CHANNELS 3 Zrotation Yrotation Xrotation
								JOINT RightFingerBase
								{
									OFFSET 0 0 0
									CHANNELS 3 Zrotation Yrotation Xrotation
									JOINT RightHandIndex1
									{
										OFFSET -0.49868 -0.00000 0.00000
										CHANNELS 3 Zrotation Yrotation Xrotation
										End Site
										{
											OFFSET -0.40204 -0.00000 0.00000
										}
									}
								}
								JOINT RThumb
								{
									OFFSET 0 0 0
									CHANNELS 3 Zrotation Yrotation Xrotation
									End Site
									{
										OFFSET -0.40818 -0.00000 0.40818
									}
								}
							}
						}
					}
				}
			}
		}
	}
}
MOTION
Frames: 6
Frame Time: .0083333
4.5898 3.0603 24.4477 -57.8649 -58.7890 41.2052 0.0000 0.0000 0.0000 -55.3493 -21.2674 -94.6798 33.9792 14.4485 134.9347 -7.5614 42.4156 -16.3620 13.2338 18.8650 69.8503 0.0000 0.0000 0.0000 -48.9588 46.5842 -86.8467 -35.9448 -12.2336 143.4367 -10.3364 -0.1075 62.0877 -2.6867 -10.1698 29.5283 6.4521 1.1778 26.9141 7.5864 3.5583 5.4616 3.6436 1.3610 -8.9122 2.1937 0.4844 -23.4722 5.6322 -2.7771 31.8048 1.3926 -0.2280 15.1574 -0.0000 0.0000 0.0000 -87.1689 -5.6602 19.6986 20.1595 -30.8340 -5.6129 -0.0000 0.0000 -62.6513 114.9700 14.9924 150.9467 -7.1250 0.0000 -0.0000 144.2686 48.4412 126.8570 -0.0000 0.0000 0.0000 42.6664 38.9755 36.7597 -30.4590 41.2836 -11.7113 0.0000 -0.0000 -1.0076 26.7359 -12.9910 -6.4606 7.1250 -0.0000 -0.0000 43.9537 -38.6195 9.1604
4.5796 3.0902 24.4583 -57.5515 -58.7996 40.1914 0.0000 0.0000 0.0000 -56.2757 -20.3070 -93.5562 33.9952 14.4330 134.9988 -6.6265 40.4227 -13.7479 13.3082 18.8906 70.0801 0.0000 0.0000 0.0000 -47.8796 49.3567 -85.3712 -35.8027 -12.4185 142.7712 -10.3627 -1.2654 61.9826 -2.9572 -10.6255 31.0270 6.5320 1.1351 28.3283 7.4327 3.6150 5.6619 3.4019 1.3577 -9.3819 2.1650 0.4676 -23.5749 5.7413 -2.8136 31.6378 1.4336 -0.2299 15.1077 -0.0000 -0.0000 0.0000 -87.1739 -7.6111 17.9714 18.5986 -28.9169 -4.8352 -0.0000 0.0000 -61.8276 116.1724 14.8620 152.4402 -7.1250 0.0000 -0.0000 145.6151 47.9960 128.9543 -0.0000 -0.0000 0.0000 42.9883 39.1546 36.9249 -30.2249 41.0854 -11.5571 0.0000 -0.0000 -0.7817 26.5142 -12.9257 -6.3676 7.1250 -0.0000 -0.0000 43.7844 -38.5985 9.1316
4.5688 3.1208 24.4686 -57.2430 -58.8389 39.1329 0.0000 0.0000 0.0000 -57.1765 -19.1485 -92.4060 34.0089 14.4197 135.0539 -5.7778 38.4066 -11.5159 13.3734 18.9129 70.2814 0.0000 0.0000 0.0000 -46.6160 52.0993 -83.7640 -35.6615 -12.5977 142.1194 -10.3695 -2.4255 61.8280 -3.2473 -11.0850 32.5671 6.5941 1.0986 29.8135 7.2596 3.6764 5.8683 3.1447 1.3539 -9.8681 2.1532 0.4513 -23.6766 5.8599 -2.8584 31.4554 1.4735 -0.2322 15.0516 -0.0000 0.0000 0.0000 -87.1441 -9.4493 16.0075 17.0626 -26.9402 -4.1156 -0.0000 0.0000 -60.7523 117.3237 14.4521 154.2175 -7.1250 0.0000 -0.0000 147.0850 47.1105 131.1709 -0.0000 0.0000 0.0000 43.3380 39.3310 37.0972 -30.0117 40.9034 -11.4173 0.0000 -0.0000 -0.5753 26.2899 -12.8577 -6.2735 7.1250 -0.0000 -0.0000 43.6117 -38.5756 9.1045
4.5553 3.1496 24.4772 -56.9269 -58.8929 38.1503 0.0000 0.0000 0.0000 -57.9751 -17.9992 -91.3671 34.0146 14.4142 135.0770 -5.1184 36.6741 -9.8191 13.4293 18.9317 70.4537 0.0000 0.0000 0.0000 -45.3056 54.5242 -82.1529 -35.5302 -12.7606 141.5212 -10.3939 -3.5174 61.7531 -3.5567 -11.5458 34.1437 6.6957 1.0477 31.4093 7.1727 3.7552 5.6533 2.7174 1.3122 -10.1082 2.1510 0.4365 -23.7748 5.9838 -2.9056 31.2617 1.5131 -0.2340 14.9900 -0.0000 -0.0000 0.0000 -87.0820 -11.1043 13.8548 15.6269 -25.0122 -3.4867 -0.0000 0.0000 -59.4276 118.2894 13.8462 156.0274 -7.1250 0.0000 -0.0000 148.4473 45.9473 133.1935 -0.0000 -0.0000 0.0000 43.7048 39.5070 37.2864 -29.8182 40.7370 -11.2908 0.0000 -0.0000 -0.3944 26.0569 -12.7883 -6.1772 7.1250 -0.0000 -0.0000 43.4323 -38.5524 9.0754
4.5204 3.2979 24.4992 -56.5909 -58.9432 37.3308 0.0000 0.0000 0.0000 -58.5259 -12.5425 -89.9463 33.9902 14.4379 134.9788 -4.6600 36.2094 -4.3690 13.4771 18.9477 70.6009 0.0000 0.0000 0.0000 108.4073 -25.3709 112.4134 -35.0896 -13.2821 139.5660 -5.8043 30.0059 60.5478 -9.6497 -17.2081 58.3109 6.6825 1.0393 32.6333 6.9915 3.8106 5.7521 2.5009 1.3086 -10.4813 2.1462 0.4238 -23.8670 6.1043 -2.9464 31.0636 1.5526 -0.2343 14.9251 0.0000 -0.0000 0.0000 -86.9934 -12.5042 11.6335 14.3669 -23.2569 -2.9715 -0.0000 0.0000 -57.8982 118.9756 13.1866 157.6104 -7.1250 0.0000 -0.0000 149.5191 44.7451 134.7749 0.0000 -0.0000 0.0000 44.0707 39.6846 37.5025 -29.6430 40.5854 -11.1766 0.0000 -0.0000 -0.2434 25.8147 -12.7158 -6.0778 7.1250 -0.0000 -0.0000 43.2451 -38.5276 9.0459
4.5005 3.3189 24.5053 -56.2268 -58.9740 36.7177 0.0000 0.0000 0.0000 -59.0301 -11.8927 -89.3459 33.9669 14.4603 134.8856 -4.3726 35.4230 -3.5450 13.5166 18.9608 70.7227 0.0000 0.0000 0.0000 108.4097 -27.1590 112.7223 -35.0098 -13.3728 139.2196 -6.0910 30.1605 61.3755 -9.8004 -17.2961 58.8193 6.6232 1.0498 33.5886 6.8244 3.8567 5.8118 2.3289 1.3083 -10.7845 2.1324 0.4124 -23.9497 6.2161 -2.9777 30.8677 1.5916 -0.2333 14.8589 0.0000 0.0000 0.0000 -86.8719 -13.5873 9.5565 13.3483 -21.7954 -2.5812 -0.0000 0.0000 -56.3058 119.3437 12.6704 158.6860 -7.1250 0.0000 -0.0000 150.1729 43.8244 135.7370 0.0000 0.0000 0.0000 44.4310 39.8626 37.7474 -29.4824 40.4456 -11.0723 0.0000 -0.0000 -0.1202 25.5684 -12.6422 -5.9778 7.1250 -0.0000 -0.0000 43.0543 -38.5023 9.0158
